<svg width="0" height="0" class="hidden">
  <symbol xmlns:xlink="http://www.w3.org/1999/xlink" xmlns="http://www.w3.org/2000/svg" viewBox="0 0 20 20" id="bit-rain">
    <path fill="#4691F6" d="M16.903,5.793c0.001-0.037,0.006-0.074,0.006-0.111c0-1.431-1.161-2.591-2.591-2.591c-0.653,0-1.248,0.244-1.704,0.642c-0.922-1.424-2.518-2.369-4.342-2.369c-2.601,0-4.748,1.918-5.119,4.415C1.633,6.141,0.5,7.504,0.5,9.136c0,1.908,1.546,3.455,3.455,3.455h12.09c1.908,0,3.455-1.547,3.455-3.455C19.5,7.525,18.395,6.176,16.903,5.793 M16.045,11.728H3.955c-1.429,0-2.591-1.162-2.591-2.591c0-1.203,0.818-2.239,1.99-2.518c0.343-0.081,0.603-0.364,0.654-0.712C4.32,3.809,6.153,2.228,8.272,2.228c1.464,0,2.385,0.306,3.186,1.543c0.136,0.21,0.789,0.783,1.037,0.817c0.04,0.006,0.119,0.008,0.119,0.008c0.208,0,0.41-0.074,0.568-0.213c0.315-0.276,0.72-0.429,1.136-0.429c0.952,0,1.727,0.775,1.726,1.736l-0.003,0.063c-0.02,0.409,0.252,0.774,0.648,0.876c1.146,0.294,1.947,1.324,1.947,2.506C18.637,10.565,17.475,11.728,16.045,11.728 M9.136,15.182c0,0.477,0.387,0.863,0.864,0.863c0.477,0,0.864-0.387,0.864-0.863c0-0.863-0.864-1.727-0.864-1.727S9.136,14.318,9.136,15.182 M4.818,17.772c0,0.478,0.387,0.864,0.863,0.864c0.477,0,0.864-0.387,0.864-0.864c0-0.863-0.864-1.728-0.864-1.728S4.818,16.909,4.818,17.772M13.454,16.909c0,0.477,0.388,0.863,0.864,0.863s0.863-0.387,0.863-0.863c0-0.864-0.863-1.728-0.863-1.728S13.454,16.045,13.454,16.909"></path>
  </symbol>
  <symbol xmlns:xlink="http://www.w3.org/1999/xlink" xmlns="http://www.w3.org/2000/svg" viewBox="0 0 20 20" id="cloud">
    <path fill="#4691F6" d="M16.889,8.82c0.002-0.038,0.006-0.075,0.006-0.112c0-1.427-1.158-2.585-2.586-2.585c-0.65,0-1.244,0.243-1.699,0.641c-0.92-1.421-2.513-2.364-4.333-2.364c-2.595,0-4.738,1.914-5.108,4.406c-1.518,0.361-2.648,1.722-2.648,3.35c0,1.904,1.543,3.447,3.447,3.447h12.065c1.904,0,3.447-1.543,3.447-3.447C19.48,10.547,18.377,9.201,16.889,8.82 M16.033,14.74H3.968c-1.426,0-2.585-1.16-2.585-2.586c0-1.2,0.816-2.233,1.985-2.512C3.71,9.561,3.969,9.279,4.021,8.931C4.333,6.838,6.162,5.26,8.277,5.26c1.461,0,2.811,0.736,3.61,1.971c0.135,0.21,0.355,0.351,0.604,0.385c0.039,0.006,0.08,0.008,0.119,0.008c0.207,0,0.408-0.074,0.566-0.212c0.316-0.275,0.719-0.428,1.133-0.428c0.951,0,1.725,0.773,1.723,1.733L16.027,8.78c-0.018,0.408,0.252,0.772,0.646,0.874c1.146,0.293,1.945,1.321,1.945,2.5C18.619,13.58,17.459,14.74,16.033,14.74"></path>
  </symbol>
  <symbol xmlns:xlink="http://www.w3.org/1999/xlink" xmlns="http://www.w3.org/2000/svg" viewBox="0 0 20 20" id="cloud-lighting">
    <path fill="#4691F6" d="M10.943,13.822c0-0.234-0.19-0.425-0.425-0.425c-0.117,0-0.224,0.048-0.3,0.125L7.67,16.07c-0.077,0.077-0.125,0.184-0.125,0.301c0,0.234,0.19,0.424,0.425,0.424h1.523L7.67,18.619c-0.077,0.077-0.125,0.183-0.125,0.3c0,0.235,0.19,0.425,0.425,0.425c0.117,0,0.223-0.047,0.3-0.124l2.548-2.549c0.077-0.076,0.125-0.183,0.125-0.3c0-0.235-0.19-0.425-0.425-0.425h-0.001H8.996l1.823-1.823C10.896,14.046,10.943,13.939,10.943,13.822 M16.883,5.014c0.002-0.037,0.006-0.073,0.006-0.11c0-1.407-1.141-2.548-2.548-2.548c-0.642,0-1.228,0.24-1.676,0.631c-0.906-1.4-2.477-2.33-4.27-2.33c-2.559,0-4.669,1.886-5.035,4.342C1.864,5.354,0.75,6.696,0.75,8.301c0,1.877,1.521,3.398,3.397,3.398H16.04c1.876,0,3.397-1.521,3.397-3.398C19.438,6.717,18.351,5.389,16.883,5.014 M16.04,10.849H4.147c-1.405,0-2.548-1.143-2.548-2.548c0-1.184,0.804-2.201,1.957-2.476c0.337-0.08,0.593-0.358,0.644-0.701c0.306-2.063,2.11-3.618,4.194-3.618c1.44,0,2.345,0.301,3.132,1.518c0.135,0.207,0.776,0.77,1.021,0.804c0.039,0.006,0.117,0.008,0.117,0.008c0.205,0,0.403-0.073,0.56-0.21c0.311-0.271,0.707-0.421,1.116-0.421c0.937,0,1.699,0.762,1.698,1.708l-0.005,0.062c-0.018,0.402,0.249,0.762,0.639,0.861c1.128,0.289,1.915,1.303,1.915,2.465C18.588,9.706,17.445,10.849,16.04,10.849"></path>
  </symbol>
  <symbol xmlns:xlink="http://www.w3.org/1999/xlink" xmlns="http://www.w3.org/2000/svg" viewBox="0 0 20 20" id="cloud-rain-lighting">
    <path fill="#4691F6" d="M10.841,13.784c0-0.232-0.188-0.421-0.42-0.421c-0.116,0-0.222,0.048-0.297,0.124l-2.522,2.521c-0.076,0.077-0.123,0.183-0.123,0.298c0,0.232,0.188,0.421,0.42,0.421h1.508l-1.805,1.805c-0.076,0.076-0.123,0.182-0.123,0.298c0,0.232,0.188,0.42,0.42,0.42c0.116,0,0.222-0.047,0.298-0.123l2.522-2.523c0.076-0.075,0.123-0.181,0.123-0.297c0-0.232-0.188-0.42-0.42-0.42h0H8.913l1.805-1.805C10.794,14.005,10.841,13.9,10.841,13.784 M6.216,14.205c-0.116,0-0.221,0.047-0.297,0.123l-2.522,2.522c-0.077,0.076-0.124,0.181-0.124,0.297c0,0.232,0.188,0.421,0.421,0.421c0.116,0,0.221-0.047,0.297-0.123l2.523-2.523c0.077-0.075,0.123-0.181,0.123-0.297C6.636,14.394,6.448,14.205,6.216,14.205M16.722,5.063c0.001-0.036,0.006-0.072,0.006-0.109c0-1.393-1.13-2.523-2.523-2.523c-0.635,0-1.215,0.237-1.658,0.625C11.648,1.671,10.094,0.75,8.318,0.75c-2.533,0-4.623,1.867-4.985,4.299C1.853,5.401,0.75,6.729,0.75,8.318c0,1.857,1.506,3.363,3.364,3.363h11.773c1.857,0,3.363-1.506,3.363-3.363C19.25,6.75,18.174,5.436,16.722,5.063 M15.887,10.841H4.114c-1.391,0-2.523-1.132-2.523-2.523c0-1.172,0.796-2.18,1.938-2.451c0.334-0.079,0.587-0.354,0.638-0.694c0.303-2.042,2.088-3.582,4.152-3.582c1.425,0,2.321,0.299,3.102,1.502c0.132,0.205,0.768,0.762,1.009,0.796c0.039,0.006,0.117,0.008,0.117,0.008c0.202,0,0.398-0.072,0.554-0.208c0.307-0.269,0.699-0.417,1.104-0.417c0.928,0,1.683,0.755,1.682,1.691l-0.005,0.062c-0.018,0.398,0.246,0.754,0.632,0.853c1.116,0.286,1.896,1.289,1.896,2.44C18.409,9.709,17.277,10.841,15.887,10.841 M15.045,14.205c-0.116,0-0.221,0.047-0.297,0.123l-2.522,2.522c-0.076,0.076-0.123,0.181-0.123,0.297c0,0.232,0.188,0.421,0.42,0.421c0.116,0,0.221-0.047,0.298-0.123l2.522-2.523c0.076-0.075,0.123-0.181,0.123-0.297C15.466,14.394,15.277,14.205,15.045,14.205"></path>
  </symbol>
  <symbol xmlns:xlink="http://www.w3.org/1999/xlink" xmlns="http://www.w3.org/2000/svg" viewBox="0 0 20 20" id="cloud-sun">
    <path fill="#4691F6" d="M17.668,11.332c1.086-0.947,1.775-2.337,1.775-3.892c0-2.853-2.313-5.167-5.166-5.167c-2.592,0-4.731,1.911-5.104,4.399C8.873,6.617,8.566,6.579,8.25,6.579c-2.593,0-4.734,1.912-5.104,4.402C1.629,11.342,0.5,12.701,0.5,14.328c0,1.902,1.542,3.444,3.444,3.444h12.055c1.902,0,3.444-1.542,3.444-3.444C19.443,13.035,18.723,11.92,17.668,11.332 M14.277,3.134c2.378,0,4.306,1.929,4.306,4.306c0,1.408-0.68,2.653-1.724,3.438c-0.002-1.424-1.158-2.578-2.582-2.578c-0.651,0-1.245,0.243-1.699,0.64c-0.605-0.935-1.507-1.656-2.568-2.044C10.277,4.776,12.084,3.134,14.277,3.134 M15.999,16.911H3.944c-1.425,0-2.583-1.158-2.583-2.583c0-1.2,0.816-2.231,1.984-2.51c0.342-0.081,0.601-0.362,0.653-0.71C4.309,9.017,6.136,7.44,8.25,7.44c1.46,0,2.377,0.306,3.175,1.538c0.137,0.21,0.787,0.781,1.034,0.815c0.04,0.006,0.119,0.008,0.119,0.008c0.208,0,0.409-0.074,0.567-0.212c0.314-0.275,0.717-0.427,1.132-0.427c0.949,0,1.722,0.772,1.721,1.731l-0.004,0.063c-0.019,0.408,0.252,0.772,0.646,0.874c1.144,0.292,1.942,1.32,1.942,2.498C18.583,15.753,17.424,16.911,15.999,16.911"></path>
  </symbol>
  <symbol xmlns:xlink="http://www.w3.org/1999/xlink" xmlns="http://www.w3.org/2000/svg" viewBox="0 0 20 20" id="crescent-moon">
    <path fill="#4691F6" d="M10.544,8.717l1.166-0.855l1.166,0.855l-0.467-1.399l1.012-0.778h-1.244L11.71,5.297l-0.466,1.244H10l1.011,0.778L10.544,8.717z M15.986,9.572l-0.467,1.244h-1.244l1.011,0.777l-0.467,1.4l1.167-0.855l1.165,0.855l-0.466-1.4l1.011-0.777h-1.244L15.986,9.572z M7.007,6.552c0-2.259,0.795-4.33,2.117-5.955C4.34,1.042,0.594,5.07,0.594,9.98c0,5.207,4.211,9.426,9.406,9.426c2.94,0,5.972-1.354,7.696-3.472c-0.289,0.026-0.987,0.044-1.283,0.044C11.219,15.979,7.007,11.759,7.007,6.552 M10,18.55c-4.715,0-8.551-3.845-8.551-8.57c0-3.783,2.407-6.999,5.842-8.131C6.549,3.295,6.152,4.911,6.152,6.552c0,5.368,4.125,9.788,9.365,10.245C13.972,17.893,11.973,18.55,10,18.55 M19.406,2.304h-1.71l-0.642-1.71l-0.642,1.71h-1.71l1.39,1.069l-0.642,1.924l1.604-1.176l1.604,1.176l-0.642-1.924L19.406,2.304z"></path>
  </symbol>
  <symbol xmlns:xlink="http://www.w3.org/1999/xlink" xmlns="http://www.w3.org/2000/svg" viewBox="0 0 20 20" id="moon">
    <path fill="#4691F6" d="M15.131,8.29c-0.944,0-1.711,0.766-1.711,1.71s0.767,1.711,1.711,1.711s1.71-0.767,1.71-1.711S16.075,8.29,15.131,8.29 M15.131,10.855c-0.472,0-0.855-0.383-0.855-0.855s0.384-0.855,0.855-0.855S15.986,9.528,15.986,10S15.603,10.855,15.131,10.855 M12.993,15.131c-0.236,0-0.428,0.191-0.428,0.427c0,0.237,0.191,0.429,0.428,0.429c0.235,0,0.427-0.191,0.427-0.429C13.42,15.322,13.229,15.131,12.993,15.131 M4.87,10.855c-0.473,0-0.855,0.383-0.855,0.856c0,0.471,0.383,0.854,0.855,0.854c0.472,0,0.854-0.384,0.854-0.854C5.724,11.238,5.341,10.855,4.87,10.855 M8.717,12.565c-0.708,0-1.283,0.574-1.283,1.283c0,0.708,0.574,1.282,1.283,1.282S10,14.557,10,13.849C10,13.14,9.426,12.565,8.717,12.565M8.717,14.275c-0.236,0-0.427-0.191-0.427-0.427c0-0.236,0.191-0.429,0.427-0.429s0.427,0.192,0.427,0.429C9.145,14.084,8.953,14.275,8.717,14.275 M11.283,10c-0.236,0-0.428,0.191-0.428,0.428c0,0.236,0.191,0.427,0.428,0.427c0.235,0,0.427-0.191,0.427-0.427C11.71,10.191,11.519,10,11.283,10 M10,0.594c-5.195,0-9.406,4.211-9.406,9.406c0,5.195,4.211,9.406,9.406,9.406c5.195,0,9.406-4.211,9.406-9.406C19.406,4.805,15.195,0.594,10,0.594 M10,18.552c-4.723,0-8.551-3.829-8.551-8.552c0-4.722,3.828-8.551,8.551-8.551S18.552,5.278,18.552,10C18.552,14.723,14.723,18.552,10,18.552M7.435,4.014c-1.417,0-2.565,1.149-2.565,2.565c0,1.417,1.148,2.565,2.565,2.565C8.851,9.145,10,7.997,10,6.58C10,5.164,8.851,4.014,7.435,4.014 M7.435,8.29c-0.944,0-1.71-0.766-1.71-1.71c0-0.945,0.766-1.71,1.71-1.71c0.945,0,1.71,0.765,1.71,1.71C9.145,7.524,8.379,8.29,7.435,8.29"></path>
  </symbol>
  <symbol xmlns:xlink="http://www.w3.org/1999/xlink" xmlns="http://www.w3.org/2000/svg" viewBox="0 0 20 20" id="rain">
    <path fill="#4691F6" d="M9.153,14.656c0-0.233-0.189-0.423-0.423-0.423c-0.117,0-0.223,0.047-0.299,0.124l-2.539,2.539c-0.077,0.078-0.125,0.183-0.125,0.3c0,0.234,0.19,0.423,0.423,0.423c0.117,0,0.223-0.047,0.299-0.123l2.54-2.54C9.106,14.88,9.153,14.773,9.153,14.656 M6.614,14.656c0-0.233-0.19-0.423-0.423-0.423c-0.117,0-0.223,0.047-0.3,0.124l-2.539,2.539c-0.077,0.078-0.125,0.183-0.125,0.3c0,0.234,0.19,0.423,0.423,0.423c0.117,0,0.223-0.047,0.299-0.123l2.54-2.54C6.566,14.88,6.614,14.773,6.614,14.656 M11.693,14.656c0-0.233-0.19-0.423-0.424-0.423c-0.116,0-0.223,0.047-0.299,0.124l-2.539,2.539c-0.077,0.078-0.125,0.183-0.125,0.3c0,0.234,0.19,0.423,0.423,0.423c0.117,0,0.223-0.047,0.299-0.123l2.54-2.54C11.646,14.88,11.693,14.773,11.693,14.656 M13.81,14.233c-0.116,0-0.223,0.047-0.3,0.124l-2.539,2.539c-0.078,0.078-0.125,0.183-0.125,0.3c0,0.234,0.189,0.423,0.423,0.423c0.117,0,0.223-0.047,0.3-0.123l2.539-2.54c0.077-0.076,0.124-0.183,0.124-0.3C14.232,14.423,14.043,14.233,13.81,14.233 M16.767,6.724c0.002-0.037,0.006-0.073,0.006-0.11c0-1.402-1.138-2.54-2.54-2.54c-0.64,0-1.223,0.238-1.67,0.629c-0.903-1.396-2.468-2.322-4.256-2.322c-2.549,0-4.654,1.88-5.018,4.328C1.798,7.063,0.688,8.401,0.688,10c0,1.87,1.516,3.387,3.386,3.387h11.852c1.87,0,3.387-1.517,3.387-3.387C19.312,8.421,18.229,7.099,16.767,6.724 M15.926,12.54H4.074c-1.4,0-2.54-1.14-2.54-2.54c0-1.18,0.802-2.194,1.951-2.468c0.336-0.079,0.59-0.356,0.642-0.698c0.306-2.056,2.103-3.606,4.18-3.606c1.436,0,2.337,0.3,3.122,1.513c0.134,0.206,0.773,0.768,1.017,0.801c0.039,0.006,0.117,0.008,0.117,0.008c0.204,0,0.402-0.073,0.558-0.209c0.31-0.271,0.705-0.42,1.112-0.42c0.935,0,1.693,0.759,1.692,1.702l-0.004,0.062c-0.018,0.401,0.247,0.759,0.637,0.858c1.123,0.288,1.908,1.298,1.908,2.457C18.466,11.4,17.326,12.54,15.926,12.54"></path>
  </symbol>
  <symbol xmlns:xlink="http://www.w3.org/1999/xlink" xmlns="http://www.w3.org/2000/svg" viewBox="0 0 20 20" id="rainbow">
    <path fill="#4691F6" d="M10,4.75c-5.316,0-9.625,4.505-9.625,10.062c0,0.241,0.196,0.438,0.438,0.438h7.875c0.242,0,0.438-0.196,0.438-0.438c0-0.725,0.392-1.312,0.875-1.312s0.875,0.588,0.875,1.312c0,0.241,0.195,0.438,0.438,0.438h7.875c0.242,0,0.438-0.196,0.438-0.438C19.625,9.255,15.316,4.75,10,4.75 M11.715,14.375c-0.162-0.998-0.868-1.75-1.715-1.75s-1.553,0.752-1.715,1.75H6.523c0.193-1.968,1.676-3.5,3.477-3.5c1.801,0,3.284,1.532,3.477,3.5H11.715z M14.354,14.375C14.153,11.923,12.282,10,10,10s-4.154,1.923-4.355,4.375h-1.75C4.106,10.957,6.755,8.25,10,8.25s5.894,2.707,6.104,6.125H14.354zM16.979,14.375c-0.214-3.902-3.252-7-6.979-7s-6.765,3.098-6.979,7h-1.75C1.49,9.505,5.308,5.625,10,5.625c4.691,0,8.51,3.88,8.729,8.75H16.979z"></path>
  </symbol>
  <symbol xmlns:xlink="http://www.w3.org/1999/xlink" xmlns="http://www.w3.org/2000/svg" viewBox="0 0 20 20" id="search">
    <path fill="#4691F6" d="M18.109,17.776l-3.082-3.081c-0.059-0.059-0.135-0.077-0.211-0.087c1.373-1.38,2.221-3.28,2.221-5.379c0-4.212-3.414-7.626-7.625-7.626c-4.212,0-7.626,3.414-7.626,7.626s3.414,7.627,7.626,7.627c1.918,0,3.665-0.713,5.004-1.882c0.006,0.085,0.033,0.17,0.098,0.234l3.082,3.081c0.143,0.142,0.371,0.142,0.514,0C18.25,18.148,18.25,17.918,18.109,17.776zM9.412,16.13c-3.811,0-6.9-3.089-6.9-6.9c0-3.81,3.089-6.899,6.9-6.899c3.811,0,6.901,3.09,6.901,6.899C16.312,13.041,13.223,16.13,9.412,16.13z"></path>
  </symbol>
  <symbol xmlns:xlink="http://www.w3.org/1999/xlink" xmlns="http://www.w3.org/2000/svg" viewBox="0 0 20 20" id="snow">
    <path fill="#4691F6" d="M7.409,12.653c-0.477,0-0.864,0.388-0.864,0.863c0,0.478,0.387,0.864,0.864,0.864s0.864-0.387,0.864-0.864C8.273,13.041,7.886,12.653,7.409,12.653 M4.818,16.972c-0.477,0-0.864,0.387-0.864,0.863c0,0.478,0.387,0.864,0.864,0.864c0.476,0,0.863-0.387,0.863-0.864C5.682,17.358,5.294,16.972,4.818,16.972 M3.091,14.381c-0.477,0-0.864,0.387-0.864,0.863s0.387,0.864,0.864,0.864s0.864-0.388,0.864-0.864S3.567,14.381,3.091,14.381 M10,16.108c-0.477,0-0.864,0.387-0.864,0.863S9.523,17.835,10,17.835s0.864-0.387,0.864-0.863S10.477,16.108,10,16.108 M14.318,14.381c0-0.477-0.388-0.864-0.864-0.864s-0.863,0.388-0.863,0.864c0,0.478,0.387,0.863,0.863,0.863S14.318,14.858,14.318,14.381 M16.903,4.992c0.002-0.037,0.006-0.074,0.006-0.111c0-1.431-1.16-2.591-2.591-2.591c-0.653,0-1.248,0.244-1.704,0.642c-0.922-1.424-2.518-2.369-4.341-2.369c-2.601,0-4.748,1.918-5.119,4.415C1.633,5.34,0.5,6.703,0.5,8.335c0,1.908,1.547,3.455,3.455,3.455h12.091c1.907,0,3.454-1.547,3.454-3.455C19.5,6.724,18.396,5.375,16.903,4.992 M16.046,10.926H3.955c-1.429,0-2.591-1.162-2.591-2.591c0-1.204,0.817-2.238,1.99-2.517c0.343-0.081,0.603-0.364,0.655-0.713C4.32,3.007,6.153,1.426,8.273,1.426c1.464,0,2.384,0.306,3.185,1.543c0.136,0.21,0.789,0.783,1.037,0.817c0.04,0.006,0.119,0.009,0.119,0.009c0.208,0,0.41-0.075,0.568-0.214c0.315-0.275,0.72-0.428,1.136-0.428c0.952,0,1.728,0.775,1.726,1.737L16.04,4.953c-0.019,0.409,0.253,0.775,0.648,0.876c1.147,0.293,1.948,1.324,1.948,2.506C18.637,9.764,17.475,10.926,16.046,10.926 M16.909,15.244c-0.477,0-0.863,0.388-0.863,0.864c0,0.478,0.387,0.863,0.863,0.863s0.863-0.386,0.863-0.863C17.772,15.632,17.386,15.244,16.909,15.244 M14.318,17.835c-0.477,0-0.864,0.387-0.864,0.864c0,0.477,0.388,0.863,0.864,0.863s0.863-0.387,0.863-0.863C15.182,18.222,14.795,17.835,14.318,17.835"></path>
  </symbol>
  <symbol xmlns:xlink="http://www.w3.org/1999/xlink" xmlns="http://www.w3.org/2000/svg" viewBox="0 0 20 20" id="sun">
    <path fill="#4691F6" d="M5.114,5.726c0.169,0.168,0.442,0.168,0.611,0c0.168-0.169,0.168-0.442,0-0.61L3.893,3.282c-0.168-0.168-0.442-0.168-0.61,0c-0.169,0.169-0.169,0.442,0,0.611L5.114,5.726z M3.955,10c0-0.239-0.193-0.432-0.432-0.432H0.932C0.693,9.568,0.5,9.761,0.5,10s0.193,0.432,0.432,0.432h2.591C3.761,10.432,3.955,10.239,3.955,10 M10,3.955c0.238,0,0.432-0.193,0.432-0.432v-2.59C10.432,0.693,10.238,0.5,10,0.5S9.568,0.693,9.568,0.932v2.59C9.568,3.762,9.762,3.955,10,3.955 M14.886,5.726l1.832-1.833c0.169-0.168,0.169-0.442,0-0.611c-0.169-0.168-0.442-0.168-0.61,0l-1.833,1.833c-0.169,0.168-0.169,0.441,0,0.61C14.443,5.894,14.717,5.894,14.886,5.726 M5.114,14.274l-1.832,1.833c-0.169,0.168-0.169,0.441,0,0.61c0.168,0.169,0.442,0.169,0.61,0l1.833-1.832c0.168-0.169,0.168-0.442,0-0.611C5.557,14.106,5.283,14.106,5.114,14.274 M19.068,9.568h-2.591c-0.238,0-0.433,0.193-0.433,0.432s0.194,0.432,0.433,0.432h2.591c0.238,0,0.432-0.193,0.432-0.432S19.307,9.568,19.068,9.568 M14.886,14.274c-0.169-0.168-0.442-0.168-0.611,0c-0.169,0.169-0.169,0.442,0,0.611l1.833,1.832c0.168,0.169,0.441,0.169,0.61,0s0.169-0.442,0-0.61L14.886,14.274z M10,4.818c-2.861,0-5.182,2.32-5.182,5.182c0,2.862,2.321,5.182,5.182,5.182s5.182-2.319,5.182-5.182C15.182,7.139,12.861,4.818,10,4.818M10,14.318c-2.385,0-4.318-1.934-4.318-4.318c0-2.385,1.933-4.318,4.318-4.318c2.386,0,4.318,1.933,4.318,4.318C14.318,12.385,12.386,14.318,10,14.318 M10,16.045c-0.238,0-0.432,0.193-0.432,0.433v2.591c0,0.238,0.194,0.432,0.432,0.432s0.432-0.193,0.432-0.432v-2.591C10.432,16.238,10.238,16.045,10,16.045"></path>
  </symbol>
  <symbol xmlns:xlink="http://www.w3.org/1999/xlink" xmlns="http://www.w3.org/2000/svg" viewBox="0 0 20 20" id="sunrise">
    <path fill="#4691F6" d="M18.935,18.509h-3.83c0-2.819-2.285-5.105-5.104-5.105s-5.105,2.286-5.105,5.105H1.066c-0.234,0-0.425,0.19-0.425,0.426c0,0.234,0.191,0.425,0.425,0.425h17.869c0.234,0,0.425-0.19,0.425-0.425C19.359,18.699,19.169,18.509,18.935,18.509 M5.746,18.509c0-2.351,1.905-4.254,4.254-4.254s4.255,1.903,4.255,4.254H5.746zM14.813,14.298l1.805-1.806c0.166-0.166,0.166-0.436,0-0.602c-0.166-0.167-0.436-0.167-0.602,0l-1.806,1.805c-0.165,0.166-0.165,0.436,0,0.603C14.378,14.463,14.647,14.463,14.813,14.298 M9.575,9.575v2.552c0,0.235,0.19,0.426,0.425,0.426s0.425-0.19,0.425-0.426V9.575c0-0.235-0.19-0.426-0.425-0.426S9.575,9.339,9.575,9.575 M5.187,14.298c0.167,0.165,0.436,0.165,0.603,0c0.166-0.167,0.166-0.437,0-0.603l-1.806-1.805c-0.167-0.167-0.435-0.167-0.602,0c-0.166,0.166-0.166,0.436,0,0.602L5.187,14.298z M7.448,4.044h0.851v2.127c0,0.235,0.19,0.425,0.425,0.425h2.553c0.234,0,0.426-0.19,0.426-0.425V4.044h0.851c0.234,0,0.425-0.19,0.425-0.425c0-0.117-0.047-0.224-0.124-0.301l-2.553-2.552C10.224,0.688,10.117,0.641,10,0.641S9.776,0.688,9.699,0.766L7.146,3.318C7.07,3.395,7.022,3.501,7.022,3.619C7.022,3.854,7.213,4.044,7.448,4.044 M10,1.667l1.525,1.525h-0.249c-0.234,0-0.425,0.191-0.425,0.426v2.127H9.149V3.619c0-0.235-0.19-0.426-0.425-0.426H8.475L10,1.667z"></path>
  </symbol>
  <symbol xmlns:xlink="http://www.w3.org/1999/xlink" xmlns="http://www.w3.org/2000/svg" viewBox="0 0 20 20" id="sunset">
    <path fill="#4691F6" d="M5.163,5.768c0.167,0.167,0.438,0.167,0.605,0c0.167-0.167,0.167-0.438,0-0.604L3.953,3.349c-0.167-0.167-0.438-0.167-0.604,0c-0.167,0.167-0.167,0.437,0,0.604L5.163,5.768z M14.837,5.768l1.814-1.814c0.167-0.167,0.167-0.438,0-0.604c-0.168-0.167-0.438-0.167-0.605,0l-1.813,1.814c-0.167,0.167-0.167,0.437,0,0.604C14.399,5.935,14.67,5.935,14.837,5.768 M10,4.014c0.236,0,0.428-0.191,0.428-0.428V1.021c0-0.236-0.192-0.428-0.428-0.428S9.572,0.785,9.572,1.021v2.565C9.572,3.823,9.764,4.014,10,4.014 M18.979,10h-3.848c0-2.833-2.297-5.131-5.131-5.131c-2.833,0-5.131,2.297-5.131,5.131H1.021c-0.236,0-0.428,0.191-0.428,0.428s0.192,0.428,0.428,0.428h17.957c0.236,0,0.428-0.191,0.428-0.428S19.215,10,18.979,10 M5.725,10c0-2.361,1.914-4.275,4.275-4.275S14.276,7.639,14.276,10H5.725zM12.565,15.985H11.71v-2.138c0-0.235-0.191-0.427-0.428-0.427H8.717c-0.236,0-0.428,0.191-0.428,0.427v2.138H7.435c-0.235,0-0.427,0.191-0.427,0.428c0,0.118,0.047,0.226,0.125,0.304l2.565,2.564c0.077,0.078,0.185,0.125,0.302,0.125s0.225-0.047,0.302-0.125l2.565-2.564c0.078-0.078,0.126-0.186,0.126-0.304C12.993,16.177,12.802,15.985,12.565,15.985 M10,18.374l-1.533-1.533h0.25c0.236,0,0.428-0.191,0.428-0.428v-2.138h1.709v2.138c0,0.236,0.192,0.428,0.428,0.428h0.251L10,18.374z"></path>
  </symbol>
  <symbol xmlns:xlink="http://www.w3.org/1999/xlink" xmlns="http://www.w3.org/2000/svg" viewBox="0 0 20 20" id="svg-export.zip">
    <path fill="#4691F6" d="M10.867,12.751V7.4c0-0.478-0.388-0.866-0.866-0.866S9.134,6.923,9.134,7.4v5.351c-1.008,0.357-1.733,1.316-1.733,2.448c0,1.436,1.164,2.599,2.6,2.599c1.435,0,2.599-1.163,2.599-2.599C12.6,14.067,11.876,13.108,10.867,12.751 M12.6,11.739V3.068c0-1.436-1.164-2.6-2.599-2.6c-1.436,0-2.6,1.164-2.6,2.6v8.671c-1.05,0.79-1.733,2.044-1.733,3.46c0,2.393,1.939,4.332,4.333,4.332c2.392,0,4.333-1.939,4.333-4.332C14.333,13.783,13.65,12.529,12.6,11.739 M10,18.665c-1.914,0-3.466-1.552-3.466-3.466c0-1.282,0.698-2.399,1.733-2.999V3.068c0-0.957,0.776-1.733,1.733-1.733s1.733,0.776,1.733,1.733V12.2c1.035,0.6,1.732,1.717,1.732,2.999C13.466,17.113,11.914,18.665,10,18.665"></path>
  </symbol>
  <symbol xmlns:xlink="http://www.w3.org/1999/xlink" xmlns="http://www.w3.org/2000/svg" viewBox="0 0 20 20" id="temperature">
    <path fill="#4691F6" d="M2.568,7.179H8.96c1.411,0,2.557-1.145,2.557-2.557c0-1.412-1.146-2.557-2.557-2.557H8.534c-0.235,0-0.426,0.19-0.426,0.426c0,0.236,0.191,0.426,0.426,0.426H8.96c0.941,0,1.704,0.763,1.704,1.705S9.901,6.327,8.96,6.327H2.568c-0.236,0-0.426,0.19-0.426,0.426C2.142,6.988,2.333,7.179,2.568,7.179 M15.778,7.179c0-0.941-0.763-1.704-1.704-1.704h-0.427c-0.235,0-0.426,0.19-0.426,0.426c0,0.235,0.19,0.426,0.426,0.426h0.427c0.47,0,0.852,0.382,0.852,0.852c0,0.471-0.382,0.853-0.852,0.853H0.864c-0.236,0-0.426,0.19-0.426,0.426c0,0.235,0.19,0.426,0.426,0.426h13.21C15.016,8.884,15.778,8.12,15.778,7.179 M16.631,9.736H2.568c-0.236,0-0.426,0.19-0.426,0.426c0,0.236,0.19,0.426,0.426,0.426h14.062c0.94,0,1.704,0.764,1.704,1.705s-0.764,1.704-1.704,1.704h-0.427c-0.235,0-0.426,0.19-0.426,0.427c0,0.235,0.19,0.426,0.426,0.426h0.427c1.411,0,2.557-1.145,2.557-2.557S18.042,9.736,16.631,9.736 M10.665,11.44H4.273c-0.236,0-0.426,0.19-0.426,0.426c0,0.236,0.19,0.427,0.426,0.427h6.392c1.412,0,2.557,1.145,2.557,2.557s-1.146,2.557-2.557,2.557h-0.426c-0.236,0-0.426,0.19-0.426,0.426s0.19,0.427,0.426,0.427h0.426c1.883,0,3.41-1.526,3.41-3.409S12.548,11.44,10.665,11.44"></path>
  </symbol>
</svg>